<svg xmlns="http://www.w3.org/2000/svg" width="67.2" height="67.2" viewBox="0 0 52.8 52.8"><defs><clipPath id="a"><path fill="none" d="M0 0h52.8v52.8H0z"/></clipPath></defs><g clip-path="url(#a)"><path fill="#f7f2f2" d="M26.4 51.8A25.4 25.4 0 1 0 1 26.4a25.4 25.4 0 0 0 25.4 25.4"/></g><g clip-path="url(#a)"><circle cx="26.4" cy="26.4" r="25.4" fill="none" stroke="#f7f2f2" stroke-width="2"/></g><g clip-path="url(#a)"><path fill="none" stroke="#d6b6be" stroke-width="3" d="M19.4 11.1a8.4 8.4 0 0 0-8.4 8.4v13.7a8.4 8.4 0 0 0 8.4 8.4h14.1a8.4 8.4 0 0 0 8.4-8.4V19.5a8.4 8.4 0 0 0-8.4-8.4z"/></g><g clip-path="url(#a)"><circle cx="26.4" cy="26.4" r="6.2" fill="none" stroke="#d6b6be" stroke-width="2"/></g><g clip-path="url(#a)"><path fill="#d6b6be" d="M35.6 20a1.9 1.9 0 1 0-1.9-1.9 1.8 1.8 0 0 0 1.9 1.9"/></g></svg>