<svg xmlns="http://www.w3.org/2000/svg" width="67.2" height="67.2" viewBox="0 0 52.8 52.8"><defs><clipPath id="a"><path fill="none" d="M0 0h52.8v52.8H0z"/></clipPath></defs><g clip-path="url(#a)"><path fill="#f7f2f2" d="M26.4 51.8A25.4 25.4 0 1 0 1 26.4a25.4 25.4 0 0 0 25.4 25.4"/></g><circle cx="26.4" cy="26.4" r="25.4" fill="none" stroke="#f7f2f2" stroke-width="2"/><path fill="#d6b6be" d="M20.6 34.9a14 14 0 0 1-2.4-.6 6.9 6.9 0 0 1-3.8-3.7c-.2-.5-.2-.6.4-.6a6.2 6.2 0 0 0 2.3-.2 7.4 7.4 0 0 1-5.4-6.9 7.3 7.3 0 0 0 3 .7 7.2 7.2 0 0 1-2.7-4.2 7.5 7.5 0 0 1 .8-5.2l1.5 1.8a19.5 19.5 0 0 0 12 5.6c.5.1.7 0 .7-.7a6.9 6.9 0 0 1 5.4-7.7 6.5 6.5 0 0 1 6 1.4 1.6 1.6 0 0 0 1.7.3 28.1 28.1 0 0 0 3.3-1.3 7.8 7.8 0 0 1-2.8 3.7 22.2 22.2 0 0 0 3.7-.9 8.5 8.5 0 0 1-2.5 2.8 2.2 2.2 0 0 0-.9 2A20.1 20.1 0 0 1 38 31.3a18.8 18.8 0 0 1-16.4 9.4 19.8 19.8 0 0 1-10.1-2.4 4.7 4.7 0 0 1-.9-.6 14.1 14.1 0 0 0 10-2.8z"/></svg>