<svg xmlns="http://www.w3.org/2000/svg" xmlns:xlink="http://www.w3.org/1999/xlink" id="Layer_1" viewBox="0 0 52.8 52.8" width="52.8" height="52.8"><style>.st0{clip-path:url(#SVGID_2_);fill:#734c56}.st1{clip-path:url(#SVGID_4_);fill:none;stroke:#734c56;stroke-width:2}.st2{fill:#f7f2f2}</style><defs><path id="SVGID_1_" d="M0 0h52.8v52.8H0z"/></defs><clipPath id="SVGID_2_"><use overflow="visible" xlink:href="#SVGID_1_"/></clipPath><path d="M26.4 51.8c14 0 25.4-11.4 25.4-25.4S40.4 1 26.4 1 1 12.4 1 26.4s11.4 25.4 25.4 25.4" class="st0"/><defs><path id="SVGID_3_" d="M0 0h52.8v52.8H0z"/></defs><clipPath id="SVGID_4_"><use overflow="visible" xlink:href="#SVGID_3_"/></clipPath><circle cx="26.4" cy="26.4" r="25.4" class="st1"/><path d="M24.9 52.7V33.9h-6.8v-7.7h6.8v-6.7s-.1-12.6 16-9v6.6l-3.6-.1s-3.9-.2-4 3.8v5.3h7.4l-1.2 7.7h-6.2v18c-.1.1-3.9 1.2-8.4.9z" class="st2"/></svg>