<?xml version="1.0" encoding="utf-8"?>
<!-- Generator: Adobe Illustrator 25.2.3, SVG Export Plug-In . SVG Version: 6.00 Build 0)  -->
<svg version="1.1" id="Layer_1" xmlns="http://www.w3.org/2000/svg" xmlns:xlink="http://www.w3.org/1999/xlink" x="0px" y="0px"
	 viewBox="0 0 52.8 52.8" style="enable-background:new 0 0 52.8 52.8;" xml:space="preserve">
<style type="text/css">
	.st0{clip-path:url(#SVGID_2_);fill:#F7F2F2;}
	.st1{clip-path:url(#SVGID_4_);fill:none;stroke:#F7F2F2;stroke-width:2;}
	.st2{fill:#D6B6BE;}
</style>
<g>
	<g>
		<defs>
			<rect id="SVGID_1_" width="52.8" height="52.8"/>
		</defs>
		<clipPath id="SVGID_2_">
			<use xlink:href="#SVGID_1_"  style="overflow:visible;"/>
		</clipPath>
		<path class="st0" d="M26.4,51.8c14,0,25.4-11.4,25.4-25.4S40.4,1,26.4,1S1,12.4,1,26.4S12.4,51.8,26.4,51.8"/>
	</g>
	<g>
		<defs>
			<rect id="SVGID_3_" width="52.8" height="52.8"/>
		</defs>
		<clipPath id="SVGID_4_">
			<use xlink:href="#SVGID_3_"  style="overflow:visible;"/>
		</clipPath>
		<circle class="st1" cx="26.4" cy="26.4" r="25.4"/>
	</g>
	<g>
		<defs>
			<rect id="SVGID_5_" width="52.8" height="52.8"/>
		</defs>
		<clipPath id="SVGID_6_">
			<use xlink:href="#SVGID_5_"  style="overflow:visible;"/>
		</clipPath>
	</g>
	<g>
		<defs>
			<rect id="SVGID_7_" width="52.8" height="52.8"/>
		</defs>
		<clipPath id="SVGID_8_">
			<use xlink:href="#SVGID_7_"  style="overflow:visible;"/>
		</clipPath>
	</g>
	<g>
		<defs>
			<rect id="SVGID_9_" width="52.8" height="52.8"/>
		</defs>
		<clipPath id="SVGID_10_">
			<use xlink:href="#SVGID_9_"  style="overflow:visible;"/>
		</clipPath>
	</g>
</g>
<path class="st2" d="M24.9,52.7V33.9h-6.8v-7.7h6.8v-6.7c0,0-0.1-12.6,16-9v6.6l-3.6-0.1c0,0-3.9-0.2-4,3.8v5.3h7.4l-1.2,7.7h-6.2
	v18C33.2,51.9,29.4,53,24.9,52.7z"/>
</svg>
