<svg xmlns="http://www.w3.org/2000/svg" xmlns:xlink="http://www.w3.org/1999/xlink" id="Layer_1" viewBox="0 0 52.8 52.8" width="52.8" height="52.8"><style>.st0{clip-path:url(#SVGID_2_);fill:#f7f2f2}.st1{clip-path:url(#SVGID_4_);fill:none;stroke:#f7f2f2;stroke-width:2}.st2,.st3{clip-path:url(#SVGID_6_);fill:none;stroke:#d6b6be;stroke-width:3}.st3{clip-path:url(#SVGID_8_);stroke-width:2}.st4{clip-path:url(#SVGID_10_);fill:#d6b6be}</style><defs><path id="SVGID_1_" d="M0 0h52.8v52.8H0z"/></defs><clipPath id="SVGID_2_"><use overflow="visible" xlink:href="#SVGID_1_"/></clipPath><path d="M26.4 51.8c14 0 25.4-11.4 25.4-25.4S40.4 1 26.4 1 1 12.4 1 26.4s11.4 25.4 25.4 25.4" class="st0"/><defs><path id="SVGID_3_" d="M0 0h52.8v52.8H0z"/></defs><clipPath id="SVGID_4_"><use overflow="visible" xlink:href="#SVGID_3_"/></clipPath><circle cx="26.4" cy="26.4" r="25.4" class="st1"/><defs><path id="SVGID_5_" d="M0 0h52.8v52.8H0z"/></defs><clipPath id="SVGID_6_"><use overflow="visible" xlink:href="#SVGID_5_"/></clipPath><path d="M19.4 11.1c-4.7 0-8.4 3.8-8.4 8.4v13.7c0 4.7 3.8 8.4 8.4 8.4h14.1c4.7 0 8.4-3.8 8.4-8.4V19.5c0-4.7-3.8-8.4-8.4-8.4H19.4z" class="st2"/><defs><path id="SVGID_7_" d="M0 0h52.8v52.8H0z"/></defs><clipPath id="SVGID_8_"><use overflow="visible" xlink:href="#SVGID_7_"/></clipPath><circle cx="26.4" cy="26.4" r="6.2" class="st3"/><defs><path id="SVGID_9_" d="M0 0h52.8v52.8H0z"/></defs><clipPath id="SVGID_10_"><use overflow="visible" xlink:href="#SVGID_9_"/></clipPath><path d="M35.6 20c1.1 0 1.9-.9 1.9-1.9 0-1.1-.9-1.9-1.9-1.9-1.1 0-1.9.9-1.9 1.9-.1 1.1.8 1.9 1.9 1.9" class="st4"/></svg>