<?xml version="1.0" encoding="utf-8"?>
<!-- Generator: Adobe Illustrator 25.2.3, SVG Export Plug-In . SVG Version: 6.00 Build 0)  -->
<svg version="1.1" id="Layer_1" xmlns="http://www.w3.org/2000/svg" xmlns:xlink="http://www.w3.org/1999/xlink" x="0px" y="0px"
	 viewBox="0 0 52.8 52.8" style="enable-background:new 0 0 52.8 52.8;" xml:space="preserve">
<style type="text/css">
	.st0{clip-path:url(#SVGID_2_);fill:#F7F2F2;}
	.st1{clip-path:url(#SVGID_4_);fill:none;stroke:#F7F2F2;stroke-width:2;}
	.st2{clip-path:url(#SVGID_6_);fill:none;stroke:#D6B6BE;stroke-width:3;}
	.st3{clip-path:url(#SVGID_8_);fill:none;stroke:#D6B6BE;stroke-width:2;}
	.st4{clip-path:url(#SVGID_10_);fill:#D6B6BE;}
</style>
<g>
	<g>
		<defs>
			<rect id="SVGID_1_" width="52.8" height="52.8"/>
		</defs>
		<clipPath id="SVGID_2_">
			<use xlink:href="#SVGID_1_"  style="overflow:visible;"/>
		</clipPath>
		<path class="st0" d="M26.4,51.8c14,0,25.4-11.4,25.4-25.4S40.4,1,26.4,1S1,12.4,1,26.4S12.4,51.8,26.4,51.8"/>
	</g>
	<g>
		<defs>
			<rect id="SVGID_3_" width="52.8" height="52.8"/>
		</defs>
		<clipPath id="SVGID_4_">
			<use xlink:href="#SVGID_3_"  style="overflow:visible;"/>
		</clipPath>
		<circle class="st1" cx="26.4" cy="26.4" r="25.4"/>
	</g>
	<g>
		<defs>
			<rect id="SVGID_5_" width="52.8" height="52.8"/>
		</defs>
		<clipPath id="SVGID_6_">
			<use xlink:href="#SVGID_5_"  style="overflow:visible;"/>
		</clipPath>
		<path class="st2" d="M19.4,11.1c-4.7,0-8.4,3.8-8.4,8.4v13.7c0,4.7,3.8,8.4,8.4,8.4h14.1c4.7,0,8.4-3.8,8.4-8.4V19.5
			c0-4.7-3.8-8.4-8.4-8.4H19.4z"/>
	</g>
	<g>
		<defs>
			<rect id="SVGID_7_" width="52.8" height="52.8"/>
		</defs>
		<clipPath id="SVGID_8_">
			<use xlink:href="#SVGID_7_"  style="overflow:visible;"/>
		</clipPath>
		<circle class="st3" cx="26.4" cy="26.4" r="6.2"/>
	</g>
	<g>
		<defs>
			<rect id="SVGID_9_" width="52.8" height="52.8"/>
		</defs>
		<clipPath id="SVGID_10_">
			<use xlink:href="#SVGID_9_"  style="overflow:visible;"/>
		</clipPath>
		<path class="st4" d="M35.6,20c1.1,0,1.9-0.9,1.9-1.9c0-1.1-0.9-1.9-1.9-1.9c-1.1,0-1.9,0.9-1.9,1.9C33.6,19.2,34.5,20,35.6,20"/>
	</g>
</g>
</svg>
