<svg xmlns="http://www.w3.org/2000/svg" width="2.2in" height="2.2in" viewBox="0 0 158 158"><circle cx="79" cy="79" r="79" fill="#f7f2f2"/><circle cx="79" cy="79" r="70.4" fill="none" stroke="#cf9faa" stroke-dasharray="13.82 13.82" stroke-miterlimit="10" stroke-width="4"/><path fill="#fff" d="M91.5 33l5 4.8 1.6.9 6.3-5.7 5.4-.7 2.6 4.1v6.7l6.8 2 2.1 3.9-1.1 6.5-5.8 5.3h-3.6l-2 7.2-2.5 4.9-9.8-2.7-3.2-6-8.6-1.5-2.7-5.1 2.7-6.7 2.6-2.3-3.6-8.2 1-4.6 6.8-2.8z"/><circle cx="99.8" cy="50.9" r="4.6" fill="#eae0ac"/><path fill="#cf9faa" d="M98.5 34.9a18.5 18.5 0 0 1 3.7-3.7 10.2 10.2 0 0 1 4.4-1.9 6.4 6.4 0 0 1 7 3.5 11.2 11.2 0 0 1 1.3 6.5c-.1 1.2.3 1.7 1.6 2 6 1.1 9.1 6.4 7.3 12.2a16.7 16.7 0 0 1-6.3 9.1 7.4 7.4 0 0 1-3.7 1.7c-1.4.1-1.8.8-1.9 2.1a16.9 16.9 0 0 1-1.2 4.4 8.2 8.2 0 0 1-11 4.3c-3.5-1.4-5.5-4.2-6.8-7.6-.3-.7-.1-1.9-1.1-1.9s-2.8-.4-3.9.8c-3 3.4-6.1 6.8-8.9 10.3-.5.7-.5 1.1.3 1.6l2.2 1.4c9.7 6.8 14.8 16.1 14.4 28.1-.3 10-7.9 19.2-18 22.1a23.2 23.2 0 0 1-16.6-1.4c-3.5-1.6-5.5-4.5-6.7-8.1a20.4 20.4 0 0 1-.3-10.7c1.6-8.4 5.6-15.7 10.4-22.7 1.5-2.2 1.5-2.2-.7-3.6-4.1-2.7-8.2-5.3-12-8.3a1.8 1.8 0 0 0-2.5-.1c-6.1 4.6-14.3 9.2-17 9.4a2.7 2.7 0 0 1-2.7-1.5 2.2 2.2 0 0 1 1.2-2.8l5.9-3.2a58.2 58.2 0 0 0 8.8-5.8c.9-.7.9-1.2.3-2.1-4-6.9-3.9-13.9-.3-20.8 9-15.6 26.7-7.2 18.1 10.3a43.8 43.8 0 0 1-5 7.4c4.9 2.9 9.3 6 14.1 8.6.7.3 1.2.4 1.7-.3 2.7-3.5 5.7-6.8 8.6-10.1-.2-.2-.2-.3-.2-.4-5-4.6-4.7-11.1.8-15 1-.7 1.1-1.2.5-2.1a12.5 12.5 0 0 1-2-8.2 7.6 7.6 0 0 1 6.6-6.9 9.7 9.7 0 0 1 8.3 2.3zm-28 53c-4 5.4-7.7 11-9.1 17.7-.7 3.8-2.2 17.2 9.7 17.1 8 .7 11.6-3.8 12.7-7.3a17.6 17.6 0 0 0-.4-12.4 29.3 29.3 0 0 0-12.9-15.1zM54.3 62.7A22.2 22.2 0 0 0 60.9 49c.1-2.7-3.3-6.6-8.7-.5-3.2 3.4-3.7 8.3-.4 12a7.5 7.5 0 0 0 2.5 2.2zm64.9-12.2c.1-2.2-.7-3.3-2.4-3.9a7 7 0 0 0-8.6 4.1c-.4.9-1.2 1.9-.6 2.9a9.3 9.3 0 0 0 3.3 3.8 4.6 4.6 0 0 0 5.5-.8 10.4 10.4 0 0 0 2.8-6.1zM107.4 66a14.2 14.2 0 0 0-2.4-7.5c-.3-.4-.7-1.1-1.3-.8s-3.6.7-4.4 2.5-1.8 5.6-.3 8.5 2 2.3 3.7 2.1 5-2.1 4.7-4.8zM86.5 40.2a5.2 5.2 0 0 0 1.4 3.9 14 14 0 0 0 3.3 2.7c1.8 1 1.9.9 2.9-.8a4.5 4.5 0 0 1 1-1.3c1.7-1.8 1.7-1.8.8-3.9a12 12 0 0 0-1.8-3.1c-1.4-1.8-3.1-2.3-4.8-1.7a4.7 4.7 0 0 0-2.8 4.2zm15.4 1.3c.1.7-.2 1.5.5 2l3.1 1.6c.2.1.5-.1.7-.2 1.9-1.7 3.7-3.5 4.4-6.1a3.9 3.9 0 0 0-1.6-4.4c-1.2-.7-3.2-.3-4.6 1l-.7.9a9.9 9.9 0 0 0-1.8 5.2zM83.7 56.1a4.4 4.4 0 0 0 2.1 4 3.8 3.8 0 0 0 4.3 0 7.8 7.8 0 0 0 2.6-2.5c1.2-1.7.4-4.6-1.6-5.2a8.1 8.1 0 0 0-3.8-.4 4.1 4.1 0 0 0-3.6 4.1zm16.7-8.7a3.7 3.7 0 0 0-4 3.4 3.3 3.3 0 0 0 3.4 3.5c2 0 3.3-1.3 3.4-3.5s-1-3.4-2.8-3.4z"/></svg>