<svg xmlns="http://www.w3.org/2000/svg"><symbol id="logo" viewBox="0 0 158.4 158.4"><circle cx="79.2" cy="79.2" r="79.2" fill="#f7f2f2"/><circle cx="79.2" cy="79.2" r="70.6" fill="none" stroke="#cf9faa" stroke-dasharray="13.85 13.85" stroke-miterlimit="10.03" stroke-width="4.01"/><path fill="#fff" d="M91.7 33.1l5 4.8 1.6.9 6.4-5.7 5.4-.7 2.6 4.1v6.7l6.8 2 2.1 3.9-1.1 6.5-5.8 5.4h-3.6l-2 7.2-2.5 4.9-9.9-2.7-3.2-6-8.6-1.5-2.7-5.2 2.7-6.7 2.6-2.3-3.6-8.2 1-4.6z"/><circle cx="100.1" cy="51" r="4.6" fill="#eae0ac"/><path fill="#cf9faa" d="M98.7 35a19 19 0 0 1 3.8-3.7 9.1 9.1 0 0 1 4.4-1.9 6.4 6.4 0 0 1 7 3.5 11.2 11.2 0 0 1 1.3 6.5c-.1 1.2.3 1.7 1.6 2 6 1.1 9.1 6.4 7.3 12.2a16.9 16.9 0 0 1-6.3 9.2 7.4 7.4 0 0 1-3.7 1.7c-1.4.1-1.8.8-1.9 2.1A16.9 16.9 0 0 1 111 71a8.2 8.2 0 0 1-10.8 4.4h-.2c-3.6-1.4-5.6-4.2-6.9-7.6-.3-.7-.1-1.9-1.1-1.9s-2.8-.4-3.9.8c-3 3.4-6.1 6.8-8.9 10.3-.5.7-.5 1.1.3 1.6l2.2 1.4c9.7 6.8 14.8 16.1 14.4 28.2-.3 10-7.9 19.2-18 22.1a23.2 23.2 0 0 1-16.6-1.4c-3.6-1.6-5.6-4.5-6.8-8.1a21.6 21.6 0 0 1-.3-10.7c1.6-8.4 5.7-15.8 10.5-22.8 1.5-2.2 1.5-2.2-.7-3.6-4.1-2.7-8.3-5.3-12.1-8.3a1.7 1.7 0 0 0-2.5-.1c-6.1 4.6-14.3 9.2-17 9.4a2.8 2.8 0 0 1-2.7-1.5 2.2 2.2 0 0 1 1.2-2.8l5.9-3.3a58.2 58.2 0 0 0 8.8-5.8c.9-.7.9-1.2.3-2.1-4-6.9-3.9-14-.3-20.9 9-15.6 26.8-7.2 18.2 10.3a43.1 43.1 0 0 1-5.1 7.5c5 2.9 9.4 6 14.2 8.6.7.3 1.2.4 1.7-.3 2.7-3.5 5.7-6.8 8.6-10.1-.2-.2-.2-.3-.2-.4-5-4.7-4.7-11.2.8-15.1 1-.7 1.1-1.2.5-2.1a12.5 12.5 0 0 1-2-8.2 7.6 7.6 0 0 1 6.6-6.9 9.6 9.6 0 0 1 8.3 2.3zm-28 53.1c-4 5.4-7.7 11.1-9.1 17.8-.7 3.8-2.3 17.2 9.7 17.1 8 .7 11.6-3.8 12.7-7.3a17.6 17.6 0 0 0-.4-12.4 29.6 29.6 0 0 0-12.9-15.2zM54.4 62.9a22.9 22.9 0 0 0 6.7-13.8c.1-2.7-3.4-6.6-8.8-.5a9.4 9.4 0 0 0 2.1 14.3zm65.1-12.3c.1-2.2-.7-3.3-2.4-3.9a7 7 0 0 0-8.6 4.1c-.4.9-1.2 1.9-.6 2.9a8.1 8.1 0 0 0 3.3 3.8 4.6 4.6 0 0 0 5.5-.8 9.9 9.9 0 0 0 2.8-6.1zm-11.8 15.6a14.8 14.8 0 0 0-2.4-7.6c-.3-.4-.7-1.1-1.3-.8s-3.6.7-4.4 2.6-1.9 5.6-.3 8.5 2 2.3 3.7 2.1 5-2.1 4.7-4.8zm-21-25.9a5.1 5.1 0 0 0 1.4 3.9 14 14 0 0 0 3.3 2.7c1.8 1 1.9.9 2.9-.8a6.4 6.4 0 0 1 1-1.3c1.7-1.8 1.7-1.8.8-3.9a9.7 9.7 0 0 0-1.8-3.1c-1.4-1.8-3.1-2.3-4.8-1.7a4.9 4.9 0 0 0-2.8 4.2zm15.5 1.3c.1.7-.2 1.5.5 2l3.1 1.6c.2.1.5-.1.7-.2 1.9-1.7 3.7-3.5 4.4-6.1a3.9 3.9 0 0 0-1.6-4.4c-1.2-.7-3.2-.3-4.6 1l-.7.9a9.6 9.6 0 0 0-1.8 5.2zM83.9 56.2a4.5 4.5 0 0 0 2.1 4.1 4.2 4.2 0 0 0 4.3 0 7.2 7.2 0 0 0 2.6-2.6c1.2-1.7.4-4.6-1.6-5.2a9.7 9.7 0 0 0-3.8-.4 4.2 4.2 0 0 0-3.6 4.1zm16.8-8.7a3.8 3.8 0 0 0-4.1 3.4 3.3 3.3 0 0 0 3.1 3.5h.4c2 0 3.3-1.3 3.4-3.5s-1-3.4-2.8-3.4z"/></symbol><symbol id="facebook-hover" viewBox="0 0 52.8 52.8"><defs><clipPath id="a"><path fill="none" d="M0 0h52.8v52.8H0z"/></clipPath></defs><g clip-path="url(#a)"><path fill="#734c56" d="M26.4 51.8A25.4 25.4 0 1 0 1 26.4a25.4 25.4 0 0 0 25.4 25.4"/></g><g clip-path="url(#a)"><circle cx="26.4" cy="26.4" r="25.4" fill="none" stroke="#734c56" stroke-width="2"/></g><path fill="#f7f2f2" d="M24.9 52.7V33.9h-6.8v-7.7h6.8v-6.7s-.1-12.6 16-9v6.6h-3.6a3.7 3.7 0 0 0-4 3.8v5.3h7.4l-1.2 7.7h-6.2v18a23.6 23.6 0 0 1-8.4.8z"/></symbol><symbol id="insta" viewBox="0 0 52.8 52.8"><defs><clipPath id="a"><path fill="none" d="M0 0h52.8v52.8H0z"/></clipPath></defs><g clip-path="url(#a)"><path fill="#f7f2f2" d="M26.4 51.8A25.4 25.4 0 1 0 1 26.4a25.4 25.4 0 0 0 25.4 25.4"/></g><g clip-path="url(#a)"><circle cx="26.4" cy="26.4" r="25.4" fill="none" stroke="#f7f2f2" stroke-width="2"/></g><g clip-path="url(#a)"><path fill="none" stroke="#d6b6be" stroke-width="3" d="M19.4 11.1a8.4 8.4 0 0 0-8.4 8.4v13.7a8.4 8.4 0 0 0 8.4 8.4h14.1a8.4 8.4 0 0 0 8.4-8.4V19.5a8.4 8.4 0 0 0-8.4-8.4z"/></g><g clip-path="url(#a)"><circle cx="26.4" cy="26.4" r="6.2" fill="none" stroke="#d6b6be" stroke-width="2"/></g><g clip-path="url(#a)"><path fill="#d6b6be" d="M35.6 20a1.9 1.9 0 1 0-1.9-1.9 1.8 1.8 0 0 0 1.9 1.9"/></g></symbol><symbol id="twitter" viewBox="0 0 52.8 52.8"><defs><clipPath id="a"><path fill="none" d="M0 0h52.8v52.8H0z"/></clipPath></defs><g clip-path="url(#a)"><path fill="#f7f2f2" d="M26.4 51.8A25.4 25.4 0 1 0 1 26.4a25.4 25.4 0 0 0 25.4 25.4"/></g><circle cx="26.4" cy="26.4" r="25.4" fill="none" stroke="#f7f2f2" stroke-width="2"/><path fill="#d6b6be" d="M20.6 34.9a14 14 0 0 1-2.4-.6 6.9 6.9 0 0 1-3.8-3.7c-.2-.5-.2-.6.4-.6a6.2 6.2 0 0 0 2.3-.2 7.4 7.4 0 0 1-5.4-6.9 7.3 7.3 0 0 0 3 .7 7.2 7.2 0 0 1-2.7-4.2 7.5 7.5 0 0 1 .8-5.2l1.5 1.8a19.5 19.5 0 0 0 12 5.6c.5.1.7 0 .7-.7a6.9 6.9 0 0 1 5.4-7.7 6.5 6.5 0 0 1 6 1.4 1.6 1.6 0 0 0 1.7.3 28.1 28.1 0 0 0 3.3-1.3 7.8 7.8 0 0 1-2.8 3.7 22.2 22.2 0 0 0 3.7-.9 8.5 8.5 0 0 1-2.5 2.8 2.2 2.2 0 0 0-.9 2A20.1 20.1 0 0 1 38 31.3a18.8 18.8 0 0 1-16.4 9.4 19.8 19.8 0 0 1-10.1-2.4 4.7 4.7 0 0 1-.9-.6 14.1 14.1 0 0 0 10-2.8z"/></symbol><symbol id="insta-hover" viewBox="0 0 52.8 52.8"><defs><clipPath id="a"><path fill="none" d="M0 0h52.8v52.8H0z"/></clipPath></defs><g clip-path="url(#a)"><path fill="#734c56" d="M26.4 51.8A25.4 25.4 0 1 0 1 26.4a25.4 25.4 0 0 0 25.4 25.4"/></g><g clip-path="url(#a)"><circle cx="26.4" cy="26.4" r="25.4" fill="none" stroke="#734c56" stroke-width="2"/></g><g clip-path="url(#a)"><path fill="none" stroke="#f7f2f2" stroke-width="3" d="M19.4 11.1a8.4 8.4 0 0 0-8.4 8.4v13.7a8.4 8.4 0 0 0 8.4 8.4h14.1a8.4 8.4 0 0 0 8.4-8.4V19.5a8.4 8.4 0 0 0-8.4-8.4z"/></g><g clip-path="url(#a)"><circle cx="26.4" cy="26.4" r="6.2" fill="none" stroke="#f7f2f2" stroke-width="2"/></g><g clip-path="url(#a)"><path fill="#f7f2f2" d="M35.6 20a1.9 1.9 0 1 0-1.9-1.9 1.8 1.8 0 0 0 1.9 1.9"/></g></symbol><symbol id="facebook" viewBox="0 0 52.8 52.8"><defs><clipPath id="a"><path fill="none" d="M0 0h52.8v52.8H0z"/></clipPath></defs><g clip-path="url(#a)"><path fill="#f7f2f2" d="M26.4 51.8A25.4 25.4 0 1 0 1 26.4a25.4 25.4 0 0 0 25.4 25.4"/></g><g clip-path="url(#a)"><circle cx="26.4" cy="26.4" r="25.4" fill="none" stroke="#f7f2f2" stroke-width="2"/></g><path fill="#d6b6be" d="M24.9 52.7V33.9h-6.8v-7.7h6.8v-6.7s-.1-12.6 16-9v6.6h-3.6a3.7 3.7 0 0 0-4 3.8v5.3h7.4l-1.2 7.7h-6.2v18a23.6 23.6 0 0 1-8.4.8z"/></symbol><symbol id="twitter-hover" viewBox="0 0 52.8 52.8"><defs><clipPath id="a"><path fill="none" d="M0 0h52.8v52.8H0z"/></clipPath></defs><g clip-path="url(#a)"><path fill="#734c56" d="M26.4 51.8A25.4 25.4 0 1 0 1 26.4a25.4 25.4 0 0 0 25.4 25.4"/></g><g clip-path="url(#a)"><circle cx="26.4" cy="26.4" r="25.4" fill="none" stroke="#734c56" stroke-width="2"/></g><path fill="#f7f2f2" d="M20.6 34.9a14 14 0 0 1-2.4-.6 6.9 6.9 0 0 1-3.8-3.7c-.2-.5-.2-.6.4-.6a6.2 6.2 0 0 0 2.3-.2 7.4 7.4 0 0 1-5.4-6.9 7.3 7.3 0 0 0 3 .7 7.2 7.2 0 0 1-2.7-4.2 7.5 7.5 0 0 1 .8-5.2l1.5 1.8a19.5 19.5 0 0 0 12 5.6c.5.1.7 0 .7-.7a6.9 6.9 0 0 1 5.4-7.7 6.5 6.5 0 0 1 6 1.4 1.6 1.6 0 0 0 1.7.3 28.1 28.1 0 0 0 3.3-1.3 7.8 7.8 0 0 1-2.8 3.7 22.2 22.2 0 0 0 3.7-.9 8.5 8.5 0 0 1-2.5 2.8 2.2 2.2 0 0 0-.9 2A20.1 20.1 0 0 1 38 31.3a18.8 18.8 0 0 1-16.4 9.4 19.8 19.8 0 0 1-10.1-2.4 4.7 4.7 0 0 1-.9-.6 14.1 14.1 0 0 0 10-2.8z"/></symbol></svg>