<svg xmlns="http://www.w3.org/2000/svg" xmlns:xlink="http://www.w3.org/1999/xlink" id="Layer_1" viewBox="0 0 52.8 52.8" width="52.8" height="52.8"><style>.st0{clip-path:url(#SVGID_2_);fill:#734c56}.st1{clip-path:url(#SVGID_4_);fill:none;stroke:#734c56;stroke-width:2}.st2{fill:#f7f2f2}</style><defs><path id="SVGID_1_" d="M0 0h52.8v52.8H0z"/></defs><clipPath id="SVGID_2_"><use overflow="visible" xlink:href="#SVGID_1_"/></clipPath><path d="M26.4 51.8c14 0 25.4-11.4 25.4-25.4S40.4 1 26.4 1 1 12.4 1 26.4s11.4 25.4 25.4 25.4" class="st0"/><defs><path id="SVGID_3_" d="M0 0h52.8v52.8H0z"/></defs><clipPath id="SVGID_4_"><use overflow="visible" xlink:href="#SVGID_3_"/></clipPath><circle cx="26.4" cy="26.4" r="25.4" class="st1"/><path d="M20.6 34.9c-.9-.2-1.7-.3-2.4-.6-1.8-.7-3-2-3.8-3.7-.2-.5-.2-.6.4-.6.7 0 1.5.1 2.3-.2-3.3-1.1-5.1-3.4-5.4-6.9 1 .3 1.8.8 3 .7-1.4-1.2-2.4-2.5-2.7-4.2s-.2-3.4.8-5.2c.6.7 1 1.3 1.5 1.8 3.3 3.3 7.4 5.1 12 5.6.5.1.7 0 .7-.7-.4-3.7 1.7-6.8 5.4-7.7 2.2-.5 4.3-.1 6 1.4.6.5 1.1.5 1.7.3 1.1-.3 2.1-.8 3.3-1.3-.5 1.6-1.5 2.6-2.8 3.7 1.4-.2 2.4-.5 3.7-.9-.7 1.2-1.5 2.1-2.5 2.8-.7.5-.9 1.2-.9 2-.1 3.6-1 7-2.9 10.1-3.8 6.1-9.2 9.2-16.4 9.4-3.6.1-6.9-.7-10.1-2.4-.3-.2-.6-.3-.9-.6 3.6.3 6.9-.5 10-2.8z" class="st2"/></svg>