<?xml version="1.0" encoding="utf-8"?>
<!-- Generator: Adobe Illustrator 25.2.3, SVG Export Plug-In . SVG Version: 6.00 Build 0)  -->
<svg version="1.1" id="Layer_1" xmlns="http://www.w3.org/2000/svg" xmlns:xlink="http://www.w3.org/1999/xlink" x="0px" y="0px"
	 viewBox="0 0 52.8 52.8" style="enable-background:new 0 0 52.8 52.8;" xml:space="preserve">
<style type="text/css">
	.st0{clip-path:url(#SVGID_2_);fill:#F7F2F2;}
	.st1{clip-path:url(#SVGID_4_);fill:none;stroke:#F7F2F2;stroke-width:2;}
	.st2{fill:#D6B6BE;}
</style>
<g>
	<g>
		<defs>
			<rect id="SVGID_1_" width="52.8" height="52.8"/>
		</defs>
		<clipPath id="SVGID_2_">
			<use xlink:href="#SVGID_1_"  style="overflow:visible;"/>
		</clipPath>
		<path class="st0" d="M26.4,51.8c14,0,25.4-11.4,25.4-25.4S40.4,1,26.4,1S1,12.4,1,26.4S12.4,51.8,26.4,51.8"/>
	</g>
	<g>
		<defs>
			<rect id="SVGID_3_" width="52.8" height="52.8"/>
		</defs>
		<clipPath id="SVGID_4_">
			<use xlink:href="#SVGID_3_"  style="overflow:visible;"/>
		</clipPath>
		<circle class="st1" cx="26.4" cy="26.4" r="25.4"/>
	</g>
	<g>
		<defs>
			<rect id="SVGID_5_" width="52.8" height="52.8"/>
		</defs>
		<clipPath id="SVGID_6_">
			<use xlink:href="#SVGID_5_"  style="overflow:visible;"/>
		</clipPath>
	</g>
	<g>
		<defs>
			<rect id="SVGID_7_" width="52.8" height="52.8"/>
		</defs>
		<clipPath id="SVGID_8_">
			<use xlink:href="#SVGID_7_"  style="overflow:visible;"/>
		</clipPath>
	</g>
	<g>
		<defs>
			<rect id="SVGID_9_" width="52.8" height="52.8"/>
		</defs>
		<clipPath id="SVGID_10_">
			<use xlink:href="#SVGID_9_"  style="overflow:visible;"/>
		</clipPath>
	</g>
</g>
<g>
	<g>
		<path class="st2" d="M20.6,34.9c-0.9-0.2-1.7-0.3-2.4-0.6c-1.8-0.7-3-2-3.8-3.7c-0.2-0.5-0.2-0.6,0.4-0.6c0.7,0,1.5,0.1,2.3-0.2
			c-3.3-1.1-5.1-3.4-5.4-6.9c1,0.3,1.8,0.8,3,0.7c-1.4-1.2-2.4-2.5-2.7-4.2c-0.3-1.7-0.2-3.4,0.8-5.2c0.6,0.7,1,1.3,1.5,1.8
			c3.3,3.3,7.4,5.1,12,5.6c0.5,0.1,0.7,0,0.7-0.7c-0.4-3.7,1.7-6.8,5.4-7.7c2.2-0.5,4.3-0.1,6,1.4c0.6,0.5,1.1,0.5,1.7,0.3
			c1.1-0.3,2.1-0.8,3.3-1.3c-0.5,1.6-1.5,2.6-2.8,3.7c1.4-0.2,2.4-0.5,3.7-0.9c-0.7,1.2-1.5,2.1-2.5,2.8c-0.7,0.5-0.9,1.2-0.9,2
			c-0.1,3.6-1,7-2.9,10.1c-3.8,6.1-9.2,9.2-16.4,9.4c-3.6,0.1-6.9-0.7-10.1-2.4c-0.3-0.2-0.6-0.3-0.9-0.6
			C14.2,38,17.5,37.2,20.6,34.9z"/>
	</g>
</g>
</svg>
